<svg xmlns="http://www.w3.org/2000/svg" width="256" height="256" viewBox="0 0 256 256"><style>.a{ stroke:none;fill:rgb(100%,16.470588%,16.470588%);}</style><path d="M127.8 0.2C93.4 0.2 61.8 13.3 37.5 37.7 13.1 62.1 0 93.6 0 128 0 162.4 13.1 193.9 37.5 218.3 57.9 238.8 83.5 251.3 112.4 255 123.8 256.5 141.2 255.7 153.6 253.2 198.3 244.3 236.5 209.7 249.8 166 263.9 120.1 251.8 71.5 218.1 37.7 193.7 13.3 162.1 0.2 127.8 0.2ZM126.6 10.3C145.1 10.1 163.6 14.3 180.4 22.7 203.5 34.3 221.5 52.3 233 75.4 249.7 108.5 249.7 147.5 233 180.6 227.2 192.2 221.5 200.4 212.3 209.9 192.8 230.1 167 242.5 138.3 245.3 116.9 247.4 94.9 243.2 75.1 233.3 63.5 227.5 55.4 221.7 45.8 212.5 9 177-0.5 121.3 22.5 75.4 36.3 47.8 60.1 26.9 89.1 16.8 101.3 12.5 113.9 10.4 126.6 10.3ZM126.6 10.3" class="a"/><path d="M157.6 197L133.4 160.7 57.3 160.7 57.3 70.5 193.7 70.5 193.7 160.7 164.9 160.7ZM65.3 152.7L137.7 152.7 153.5 176.5 158.3 152.7 185.6 152.7 185.6 78.5 65.3 78.5ZM65.3 152.7" class="a"/></svg>